<svg width="16" height="16" viewBox="0 0 16 16" fill="none" xmlns="http://www.w3.org/2000/svg">
<g clip-path="url(#clip0_1_437)">
<path d="M8 10C9.10457 10 10 9.10457 10 8C10 6.89543 9.10457 6 8 6C6.89543 6 6 6.89543 6 8C6 9.10457 6.89543 10 8 10Z" stroke="#8B8B8B" stroke-linecap="round" stroke-linejoin="round"/>
<path d="M12.9333 10C12.8446 10.2011 12.8181 10.4241 12.8573 10.6404C12.8965 10.8567 12.9996 11.0562 13.1533 11.2133L13.1933 11.2533C13.3173 11.3772 13.4156 11.5242 13.4827 11.6861C13.5498 11.8479 13.5844 12.0215 13.5844 12.1967C13.5844 12.3719 13.5498 12.5454 13.4827 12.7073C13.4156 12.8691 13.3173 13.0162 13.1933 13.14C13.0695 13.264 12.9225 13.3623 12.7606 13.4294C12.5987 13.4965 12.4252 13.5311 12.25 13.5311C12.0748 13.5311 11.9013 13.4965 11.7394 13.4294C11.5776 13.3623 11.4305 13.264 11.3067 13.14L11.2667 13.1C11.1095 12.9463 10.91 12.8432 10.6937 12.804C10.4775 12.7648 10.2544 12.7913 10.0533 12.88C9.85616 12.9645 9.68799 13.1048 9.56954 13.2837C9.45109 13.4626 9.38752 13.6721 9.38667 13.8867V14C9.38667 14.3536 9.24619 14.6928 8.99614 14.9428C8.7461 15.1929 8.40696 15.3333 8.05333 15.3333C7.69971 15.3333 7.36057 15.1929 7.11053 14.9428C6.86048 14.6928 6.72 14.3536 6.72 14V13.94C6.71484 13.7193 6.64341 13.5053 6.51501 13.3258C6.3866 13.1463 6.20716 13.0095 6 12.9333C5.79892 12.8446 5.57587 12.8181 5.35961 12.8573C5.14335 12.8965 4.94379 12.9996 4.78667 13.1533L4.74667 13.1933C4.62284 13.3173 4.47579 13.4157 4.31392 13.4828C4.15206 13.5499 3.97856 13.5844 3.80333 13.5844C3.62811 13.5844 3.45461 13.5499 3.29275 13.4828C3.13088 13.4157 2.98383 13.3173 2.86 13.1933C2.73603 13.0695 2.63769 12.9225 2.57059 12.7606C2.50349 12.5987 2.46895 12.4252 2.46895 12.25C2.46895 12.0748 2.50349 11.9013 2.57059 11.7394C2.63769 11.5776 2.73603 11.4305 2.86 11.3067L2.9 11.2667C3.05369 11.1096 3.15679 10.91 3.196 10.6937C3.23522 10.4775 3.20874 10.2544 3.12 10.0533C3.03549 9.85616 2.89517 9.68799 2.71631 9.56954C2.53745 9.45109 2.32786 9.38753 2.11333 9.38667H2C1.64638 9.38667 1.30724 9.2462 1.05719 8.99615C0.807144 8.7461 0.666668 8.40696 0.666668 8.05334C0.666668 7.69972 0.807144 7.36058 1.05719 7.11053C1.30724 6.86048 1.64638 6.72001 2 6.72001H2.06C2.28066 6.71484 2.49467 6.64342 2.6742 6.51501C2.85373 6.38661 2.99048 6.20716 3.06667 6.00001C3.15541 5.79893 3.18188 5.57588 3.14267 5.35961C3.10346 5.14335 3.00036 4.94379 2.84667 4.78667L2.80667 4.74667C2.6827 4.62284 2.58435 4.47579 2.51726 4.31393C2.45016 4.15206 2.41562 3.97856 2.41562 3.80334C2.41562 3.62812 2.45016 3.45462 2.51726 3.29275C2.58435 3.13089 2.6827 2.98384 2.80667 2.86001C2.9305 2.73604 3.07755 2.63769 3.23941 2.57059C3.40128 2.50349 3.57478 2.46896 3.75 2.46896C3.92522 2.46896 4.09872 2.50349 4.26059 2.57059C4.42245 2.63769 4.5695 2.73604 4.69333 2.86001L4.73333 2.90001C4.89045 3.0537 5.09001 3.1568 5.30628 3.19601C5.52254 3.23522 5.74559 3.20875 5.94667 3.12001H6C6.19718 3.0355 6.36535 2.89518 6.4838 2.71632C6.60225 2.53746 6.66581 2.32786 6.66667 2.11334V2.00001C6.66667 1.64638 6.80714 1.30724 7.05719 1.0572C7.30724 0.807148 7.64638 0.666672 8 0.666672C8.35362 0.666672 8.69276 0.807148 8.94281 1.0572C9.19286 1.30724 9.33333 1.64638 9.33333 2.00001V2.06001C9.33419 2.27453 9.39776 2.48412 9.51621 2.66298C9.63466 2.84184 9.80282 2.98216 10 3.06667C10.2011 3.15542 10.4241 3.18189 10.6404 3.14267C10.8567 3.10346 11.0562 3.00036 11.2133 2.84667L11.2533 2.80667C11.3772 2.6827 11.5242 2.58436 11.6861 2.51726C11.8479 2.45016 12.0214 2.41562 12.1967 2.41562C12.3719 2.41562 12.5454 2.45016 12.7073 2.51726C12.8691 2.58436 13.0162 2.6827 13.14 2.80667C13.264 2.9305 13.3623 3.07755 13.4294 3.23942C13.4965 3.40128 13.5311 3.57478 13.5311 3.75001C13.5311 3.92523 13.4965 4.09873 13.4294 4.26059C13.3623 4.42246 13.264 4.56951 13.14 4.69334L13.1 4.73334C12.9463 4.89046 12.8432 5.09002 12.804 5.30628C12.7648 5.52254 12.7913 5.74559 12.88 5.94667V6.00001C12.9645 6.19718 13.1048 6.36535 13.2837 6.4838C13.4626 6.60225 13.6721 6.66582 13.8867 6.66667H14C14.3536 6.66667 14.6928 6.80715 14.9428 7.0572C15.1929 7.30724 15.3333 7.64638 15.3333 8.00001C15.3333 8.35363 15.1929 8.69277 14.9428 8.94281C14.6928 9.19286 14.3536 9.33334 14 9.33334H13.94C13.7255 9.33419 13.5159 9.39776 13.337 9.51621C13.1582 9.63466 13.0178 9.80283 12.9333 10Z" stroke="#8B8B8B" stroke-linecap="round" stroke-linejoin="round"/>
</g>
<defs>
<clipPath id="clip0_1_437">
<rect width="16" height="16" fill="white"/>
</clipPath>
</defs>
</svg>
