<svg width="81" height="39" viewBox="0 0 81 39" fill="none" xmlns="http://www.w3.org/2000/svg">
<g filter="url(#filter0_d_1_416)">
<path d="M34 6.25C34 9.1495 31.6495 11.5 28.75 11.5H13C10.5147 11.5 8.5 13.5147 8.5 16C8.5 18.4853 10.5147 20.5 13 20.5H28.75C31.6495 20.5 34 22.8505 34 25.75C34 28.6495 31.6495 31 28.75 31H19C10.7157 31 4 24.2843 4 16C4 7.71573 10.7157 1 19 1H28.75C31.6495 1 34 3.35051 34 6.25Z" fill="white"/>
<path d="M47.8516 14.1875C46.237 14.1875 44.9583 13.6667 44.0156 12.625C43.0781 11.5833 42.6094 10.1615 42.6094 8.35938C42.6094 6.56771 43.0807 5.15104 44.0234 4.10938C44.9714 3.0625 46.2474 2.53906 47.8516 2.53906C49.1641 2.53906 50.2708 2.91406 51.1719 3.66406C52.0729 4.40885 52.5859 5.38542 52.7109 6.59375H50.7266C50.5964 5.88542 50.2656 5.31771 49.7344 4.89062C49.2083 4.46354 48.5807 4.25 47.8516 4.25C46.8828 4.25 46.1094 4.6224 45.5312 5.36719C44.9583 6.10677 44.6719 7.10417 44.6719 8.35938C44.6719 9.625 44.9583 10.6276 45.5312 11.3672C46.1042 12.1068 46.8802 12.4766 47.8594 12.4766C48.6042 12.4766 49.2292 12.2865 49.7344 11.9062C50.2448 11.5208 50.5781 10.9896 50.7344 10.3125H52.7109C52.5339 11.5208 52.013 12.4688 51.1484 13.1562C50.2839 13.8438 49.1849 14.1875 47.8516 14.1875ZM56.2578 4.35938V8.21094H58.5312C59.1719 8.21094 59.6693 8.04167 60.0234 7.70312C60.3776 7.36458 60.5547 6.89062 60.5547 6.28125C60.5547 5.6875 60.3698 5.21875 60 4.875C59.6302 4.53125 59.1276 4.35938 58.4922 4.35938H56.2578ZM56.2578 9.75781V14H54.2422V2.72656H58.7188C59.9323 2.72656 60.8854 3.04167 61.5781 3.67188C62.2708 4.29688 62.6172 5.15104 62.6172 6.23438C62.6172 6.98958 62.4297 7.65625 62.0547 8.23438C61.6797 8.80729 61.1589 9.21354 60.4922 9.45312L62.9531 14H60.6562L58.4375 9.75781H56.2578ZM75.875 14H74.0625V6H74.0078L70.75 13.9062H69.375L66.1172 6H66.0625V14H64.2422V2.72656H66.5781L70.0312 11.2344H70.0938L73.5469 2.72656H75.875V14ZM45.0078 30H42.9922V18.7266H45.0078V24H45.0781L49.5781 18.7266H51.8984L47.5547 23.7266L52.2344 30H49.7812L46.1172 25.0781L45.0078 26.375V30ZM53.1094 30V21.7188H54.9766V23.1641H55.0156C55.1562 22.6589 55.3984 22.2682 55.7422 21.9922C56.0911 21.7161 56.5104 21.5781 57 21.5781C57.1719 21.5781 57.375 21.6042 57.6094 21.6562V23.4141C57.4167 23.3411 57.1536 23.3047 56.8203 23.3047C56.2682 23.3047 55.8359 23.4714 55.5234 23.8047C55.2109 24.138 55.0547 24.5964 55.0547 25.1797V30H53.1094ZM61.4453 28.6641C62.0026 28.6641 62.4714 28.5 62.8516 28.1719C63.237 27.8385 63.4297 27.4245 63.4297 26.9297V26.2969L61.5156 26.4141C61.0469 26.4453 60.6823 26.5625 60.4219 26.7656C60.1667 26.9635 60.0391 27.2266 60.0391 27.5547C60.0391 27.8932 60.1667 28.1641 60.4219 28.3672C60.6823 28.5651 61.0234 28.6641 61.4453 28.6641ZM60.8594 30.1328C60.0521 30.1328 59.388 29.901 58.8672 29.4375C58.3516 28.974 58.0938 28.3724 58.0938 27.6328C58.0938 26.8984 58.3646 26.3177 58.9062 25.8906C59.4531 25.4635 60.2318 25.2188 61.2422 25.1562L63.4297 25.0312V24.4375C63.4297 24.0052 63.2917 23.6693 63.0156 23.4297C62.7448 23.1901 62.3672 23.0703 61.8828 23.0703C61.4297 23.0703 61.0599 23.1719 60.7734 23.375C60.487 23.5781 60.3125 23.8542 60.25 24.2031H58.4453C58.487 23.4167 58.8229 22.7786 59.4531 22.2891C60.0885 21.7943 60.9245 21.5469 61.9609 21.5469C62.987 21.5469 63.8073 21.7969 64.4219 22.2969C65.0417 22.7969 65.3516 23.4635 65.3516 24.2969V30H63.4766V28.6797H63.4375C63.2031 29.1224 62.849 29.4766 62.375 29.7422C61.901 30.0026 61.3958 30.1328 60.8594 30.1328ZM67.4609 30V23.2188H66.3281V21.7422H67.4609V21.0078C67.4609 20.1953 67.6641 19.599 68.0703 19.2188C68.4818 18.8333 69.1328 18.6406 70.0234 18.6406C70.4245 18.6406 70.7734 18.6693 71.0703 18.7266V20.0859C70.8516 20.0547 70.6458 20.0391 70.4531 20.0391C69.7344 20.0391 69.375 20.3802 69.375 21.0625V21.7422H71.0312V23.2188H69.4062V30H67.4609ZM72.8516 19.7812H74.7969V21.7188H76.3594V23.2188H74.7969V27.5234C74.7969 27.862 74.8776 28.112 75.0391 28.2734C75.2005 28.4349 75.4531 28.5156 75.7969 28.5156C76.026 28.5156 76.2109 28.5026 76.3516 28.4766V29.9609C76.1172 30.013 75.7812 30.0391 75.3438 30.0391C74.4479 30.0391 73.8073 29.8672 73.4219 29.5234C73.0417 29.1797 72.8516 28.6042 72.8516 27.7969V23.2188H71.6641V21.7188H72.8516V19.7812Z" fill="white"/>
</g>
<defs>
<filter id="filter0_d_1_416" x="0" y="1" width="80.3594" height="38" filterUnits="userSpaceOnUse" color-interpolation-filters="sRGB">
<feFlood flood-opacity="0" result="BackgroundImageFix"/>
<feColorMatrix in="SourceAlpha" type="matrix" values="0 0 0 0 0 0 0 0 0 0 0 0 0 0 0 0 0 0 127 0" result="hardAlpha"/>
<feOffset dy="4"/>
<feGaussianBlur stdDeviation="2"/>
<feComposite in2="hardAlpha" operator="out"/>
<feColorMatrix type="matrix" values="0 0 0 0 0 0 0 0 0 0 0 0 0 0 0 0 0 0 0.25 0"/>
<feBlend mode="normal" in2="BackgroundImageFix" result="effect1_dropShadow_1_416"/>
<feBlend mode="normal" in="SourceGraphic" in2="effect1_dropShadow_1_416" result="shape"/>
</filter>
</defs>
</svg>
