<svg width="16" height="16" viewBox="0 0 16 16" fill="none" xmlns="http://www.w3.org/2000/svg">
<path d="M9.8 4.2C9.67785 4.32462 9.60943 4.49216 9.60943 4.66666C9.60943 4.84117 9.67785 5.00871 9.8 5.13333L10.8667 6.2C10.9913 6.32215 11.1588 6.39057 11.3333 6.39057C11.5078 6.39057 11.6754 6.32215 11.8 6.2L14.3133 3.68666C14.6486 4.42746 14.7501 5.25282 14.6043 6.05276C14.4586 6.8527 14.0725 7.58923 13.4975 8.16418C12.9226 8.73914 12.186 9.12522 11.3861 9.27097C10.5862 9.41672 9.76079 9.31522 9.02 8.98L4.41333 13.5867C4.14812 13.8519 3.7884 14.0009 3.41333 14.0009C3.03826 14.0009 2.67855 13.8519 2.41333 13.5867C2.14812 13.3214 1.99912 12.9617 1.99912 12.5867C1.99912 12.2116 2.14812 11.8519 2.41333 11.5867L7.02 6.98C6.68478 6.2392 6.58328 5.41384 6.72903 4.6139C6.87478 3.81396 7.26086 3.07743 7.83581 2.50248C8.41077 1.92752 9.14729 1.54144 9.94723 1.39569C10.7472 1.24994 11.5725 1.35144 12.3133 1.68666L9.80667 4.19333L9.8 4.2Z" stroke="#8B8B8B" stroke-linecap="round" stroke-linejoin="round"/>
</svg>
