<svg width="16" height="16" viewBox="0 0 16 16" fill="none" xmlns="http://www.w3.org/2000/svg">
<g clip-path="url(#clip0_1_432)">
<path d="M14.14 10.5933C13.7159 11.5963 13.0525 12.4802 12.2079 13.1675C11.3633 13.8549 10.3632 14.325 9.29496 14.5365C8.22674 14.7481 7.12295 14.6948 6.0801 14.3812C5.03725 14.0676 4.08708 13.5034 3.31268 12.7378C2.53828 11.9722 1.96321 11.0285 1.63776 9.98931C1.3123 8.9501 1.24637 7.847 1.44573 6.77643C1.64509 5.70586 2.10366 4.70042 2.78136 3.84803C3.45906 2.99563 4.33526 2.32222 5.33333 1.88667" stroke="#8B8B8B" stroke-linecap="round" stroke-linejoin="round"/>
<path d="M14.6667 7.99999C14.6667 7.12452 14.4942 6.25761 14.1592 5.44877C13.8242 4.63993 13.3331 3.90501 12.714 3.28595C12.095 2.66689 11.3601 2.17583 10.5512 1.8408C9.74239 1.50577 8.87548 1.33333 8 1.33333V7.99999H14.6667Z" stroke="#8B8B8B" stroke-linecap="round" stroke-linejoin="round"/>
</g>
<defs>
<clipPath id="clip0_1_432">
<rect width="16" height="16" fill="white"/>
</clipPath>
</defs>
</svg>
